<mxfile host="app.diagrams.net" modified="2024-02-22T07:52:03.661Z" agent="Mozilla/5.0 (Windows NT 10.0; Win64; x64) AppleWebKit/537.36 (KHTML, like Gecko) Chrome/121.0.0.0 Safari/537.36" version="23.1.5" etag="iiCfaQLfbx4FojsV1Y_u" type="github">
  <diagram name="第 1 页" id="nEmOwu2wPmZiq1Ed0Pil">
    <mxGraphModel>
      <root>
        <mxCell id="0" />
        <mxCell id="1" parent="0" />
      </root>
    </mxGraphModel>
  </diagram>
</mxfile>
